<svg xmlns="http://www.w3.org/2000/svg" shape-rendering="geometricPrecision" text-rendering="geometricPrecision" image-rendering="optimizeQuality" fill-rule="evenodd" clip-rule="evenodd" viewBox="0 0 512 456.96"><path fill="#1E1510" fill-rule="nonzero" d="M4.27 456.45c-2.36 0-4.27-1.91-4.27-4.27 0-2.36 1.91-4.27 4.27-4.27H475.4c2.36 0 4.28 1.91 4.28 4.27 0 2.36-1.92 4.27-4.28 4.27H4.27zm486.41-.99c-2.36 0-4.27-1.91-4.27-4.27 0-2.36 1.91-4.27 4.27-4.27h17.05c2.36 0 4.27 1.91 4.27 4.27 0 2.36-1.91 4.27-4.27 4.27h-17.05z"/><path fill="#E8BC9C" d="M107.75 63.92c-9.43 2.46-17.28 6.17-23.35 11.32-5.89 5.02-10.15 11.5-12.57 19.62a4.965 4.965 0 01-4.39 3.54l-50.57 6.81c-1.21.3-2.18.77-2.84 1.44-.67.67-1.13 1.68-1.37 3.07-.31 1.9-.19 4.39.44 7.52.69 3.47 1.97 7.55 3.88 12.32l.15.43c2.88 8.55 6.14 15.96 10.42 21.87 4.1 5.63 9.18 9.9 15.89 12.49 9.7 3.74 26.9 3.31 40.92 2.96 4.19-.1 8.14-.2 10.6-.2 2.75 0 4.98 2.24 4.98 4.99 0 .67-.13 1.31-.38 1.9-9.29 28.79-13.49 56.2-9.55 80.81 3.89 24.33 15.84 46.08 38.86 63.89 6.34 4.92 13.64 9.29 21.3 13.2 7.8 3.98 15.84 7.42 23.57 10.43 1.55.6 2.63 1.9 3.02 3.41l.01-.01 18.02 70.68a4.97 4.97 0 01-3.6 6.05c-.55.14-1.1.18-1.63.14-8.86.07-15.44 1.8-18.84 5.83-2.99 3.54-3.8 9.33-1.87 17.92h21.11l4.41.07c9.01.16 17.14.3 22.98-7.35 2.03-2.67 3.7-6.05 5-10.11 1.37-4.25 2.34-9.21 2.93-14.84l3.7-70.61a4.985 4.985 0 014.37-4.68c20.41-2.55 39.59-10.51 58.08-18.18 19.19-7.97 37.66-15.64 56.72-17.16a4.98 4.98 0 015.26 3.93 79.952 79.952 0 0010.35 22.6c4.61 6.94 10.3 13.19 16.95 18.84 5.43 4.61 11.5 8.82 18.13 12.67 6.65 3.86 13.84 7.35 21.51 10.52 7.75 2.73 12.67 6.14 15.79 10.95l.2.34c2.93 4.71 3.91 10.32 3.91 17.57v17.67c0 2.75-2.24 4.98-4.99 4.98-.3 0-.59-.02-.87-.07-.63-.05-1.27-.09-1.91-.11-6.91-.26-11.94 1.33-15.26 4.4-3.34 3.09-5.21 7.91-5.77 14.06-.06.72-.11 1.48-.14 2.28l-.01.28h.02c0 .79.09 1.3.25 1.51.02.02.03-.01.09-.03l.19-.01v-.02h27.63c6.66 0 11.56-.31 15.11-1.16 2.94-.71 4.92-1.8 6.31-3.44 1.49-1.75 3.55-8.42 5.63-16.49 3.6-14.01 6.87-31.7 7.69-37.2.47-3.19.74-6.32.65-9.23-.08-2.77-.49-5.42-1.37-7.84-2.44-6.74-7.35-10.76-12.54-15.01-6.47-5.31-13.31-10.92-17.91-21.89-5.18-12.34-5.26-25.07-5.34-38.54-.11-16.93-.22-35.12-11.61-54.11-22.91-38.2-64.49-37.24-104.71-36.32-20.24.47-40.15.93-57.86-3.35-46.33-11.18-56-42.03-65.85-73.48-6.62-21.13-13.33-42.55-32.33-56.99-6.4-4.87-14-8.31-23.26-9.69-9.53-1.43-20.81-.7-34.34 2.81z"/><path fill="#D3A480" d="M98.59 60.75l36.99 3.76c-2.27-10.47-6.02-19.57-11.15-27.78-5.08-8.13-11.55-15.45-19.3-22.44-2.69 7.59-4.64 14.88-5.78 22.12a96.34 96.34 0 00-.76 24.34z"/><path fill="#1E1510" fill-rule="nonzero" d="M98.59 60.75l6.32.64-15.77 4.28c-1.37-10.64-1.19-20.7.4-30.78 1.59-10.05 4.56-20.08 8.78-30.69a4.966 4.966 0 017.82-2.13c10.98 9.05 19.94 18.53 26.74 29.41a93.611 93.611 0 019.36 19.78l-9.63 2.61a83.773 83.773 0 00-8.18-17.14c-5.08-8.13-11.55-15.45-19.3-22.44-2.69 7.59-4.64 14.88-5.78 22.12a96.34 96.34 0 00-.76 24.34z"/><path fill="#1E1510" fill-rule="nonzero" d="M107.75 63.92c-9.43 2.46-17.28 6.17-23.35 11.32-5.89 5.02-10.15 11.5-12.57 19.62a4.965 4.965 0 01-4.39 3.54l-50.57 6.81c-1.21.3-2.18.77-2.84 1.44-.67.67-1.13 1.68-1.37 3.07-.31 1.9-.19 4.39.44 7.52.69 3.47 1.97 7.55 3.88 12.32l.15.43c2.88 8.55 6.14 15.96 10.42 21.87 4.1 5.63 9.18 9.9 15.89 12.49 9.7 3.74 26.9 3.31 40.92 2.96 4.19-.1 8.14-.2 10.6-.2 2.75 0 4.98 2.24 4.98 4.99 0 .67-.13 1.31-.38 1.9-9.29 28.79-13.49 56.2-9.55 80.81 3.89 24.33 15.84 46.08 38.86 63.89 6.34 4.92 13.64 9.29 21.3 13.2 7.8 3.98 15.84 7.42 23.57 10.43 1.55.6 2.63 1.9 3.02 3.41l.01-.01 18.02 70.68a4.97 4.97 0 01-3.6 6.05c-.55.14-1.1.18-1.63.14-8.86.07-15.44 1.8-18.84 5.83-2.99 3.54-3.8 9.33-1.87 17.92h21.11l4.41.07c9.01.16 17.14.3 22.98-7.35 2.03-2.67 3.7-6.05 5-10.11 1.37-4.25 2.34-9.21 2.93-14.84l3.7-70.61a4.985 4.985 0 014.37-4.68c20.41-2.55 39.59-10.51 58.08-18.18 19.19-7.97 37.66-15.64 56.72-17.16a4.98 4.98 0 015.26 3.93 79.952 79.952 0 0010.35 22.6c4.61 6.94 10.3 13.19 16.95 18.84 5.43 4.61 11.5 8.82 18.13 12.67 6.65 3.86 13.84 7.35 21.51 10.52 7.75 2.73 12.67 6.14 15.79 10.95l.2.34c2.93 4.71 3.91 10.32 3.91 17.57v17.67c0 2.75-2.24 4.98-4.99 4.98-.3 0-.59-.02-.87-.07-.63-.05-1.27-.09-1.91-.11-6.91-.26-11.94 1.33-15.26 4.4-3.34 3.09-5.21 7.91-5.77 14.06-.06.72-.11 1.48-.14 2.28l-.01.28h.02c0 .79.09 1.3.25 1.51.02.02.03-.01.09-.03l.19-.01v-.02h27.63c6.66 0 11.56-.31 15.11-1.16 2.94-.71 4.92-1.8 6.31-3.44 1.49-1.75 3.55-8.42 5.63-16.49 3.6-14.01 6.87-31.7 7.69-37.2.47-3.19.74-6.32.65-9.23-.08-2.77-.49-5.42-1.37-7.84-2.44-6.74-7.35-10.76-12.54-15.01-6.47-5.31-13.31-10.92-17.91-21.89-5.18-12.34-5.26-25.07-5.34-38.54-.11-16.93-.22-35.12-11.61-54.11-22.91-38.2-64.49-37.24-104.71-36.32-20.24.47-40.15.93-57.86-3.35-46.33-11.18-56-42.03-65.85-73.48-6.62-21.13-13.33-42.55-32.33-56.99-6.4-4.87-14-8.31-23.26-9.69-9.53-1.43-20.81-.7-34.34 2.81zm-29.77 3.73c7.22-6.14 16.39-10.51 27.27-13.34 14.93-3.88 27.52-4.66 38.28-3.05 11.01 1.65 20.11 5.78 27.82 11.64 21.56 16.39 28.75 39.32 35.83 61.93 9 28.74 17.84 56.93 58.69 66.79 16.46 3.97 35.74 3.53 55.33 3.08 43.04-.99 87.54-2.02 113.43 41.14 12.77 21.29 12.89 40.92 13 59.17.08 12.4.16 24.12 4.61 34.73 3.67 8.76 9.51 13.54 15.03 18.07 6.27 5.14 12.2 10 15.57 19.29 1.26 3.47 1.84 7.16 1.96 10.95.11 3.64-.2 7.32-.74 10.95-.82 5.58-4.18 23.67-7.92 38.21-2.4 9.37-5.09 17.45-7.65 20.47-2.82 3.32-6.45 5.43-11.56 6.66-4.5 1.09-10.11 1.48-17.45 1.48h-27.63v-.02h-.44c-3.21-.12-5.78-1.42-7.58-3.66-1.62-2.01-2.48-4.66-2.48-7.74h.02l.01-.63c.04-.94.1-1.89.18-2.83.78-8.59 3.68-15.57 8.92-20.44 4.8-4.43 11.35-6.93 19.8-7.08v-12.51c0-5.44-.58-9.43-2.33-12.29l-.14-.21c-1.84-2.85-5.2-5.02-10.77-6.98l-.23-.1c-8.21-3.38-15.89-7.1-22.95-11.2-7.15-4.14-13.7-8.69-19.58-13.68-7.35-6.25-13.67-13.2-18.81-20.94a88.962 88.962 0 01-10.49-21.68c-16.23 2.1-32.69 8.93-49.73 16-17.91 7.43-36.44 15.12-56.56 18.29l-3.51 66.91c-.66 6.35-1.78 12.02-3.37 16.96-1.65 5.15-3.83 9.54-6.56 13.11-8.87 11.63-19.38 11.45-31.03 11.24-.86-.01-1.75-.03-4.26-.03h-24.97c-2.17 0-4.16-1.43-4.78-3.62-4.05-14.15-2.68-24.06 2.92-30.69 4.52-5.34 11.55-8.16 20.5-9.03l-15.89-62.33c-7.39-2.93-14.91-6.2-22.09-9.86-8.1-4.14-15.92-8.84-22.86-14.21-25.2-19.51-38.3-43.41-42.59-70.2-3.92-24.49-.4-51.27 7.97-79.21l-3.58.08c-14.91.37-33.19.82-44.73-3.63-8.67-3.34-15.18-8.78-20.37-15.91-4.92-6.78-8.58-15.07-11.77-24.52-2.16-5.38-3.6-10.03-4.39-13.99-.87-4.32-1-8-.48-11.11.59-3.5 2-6.29 4.13-8.43 2.03-2.05 4.63-3.4 7.71-4.12.22-.07.44-.11.68-.14l47.94-6.46c3.11-8.61 8.05-15.65 14.67-21.28z"/><path fill="#D3A480" d="M233.47 338.8c20.37-2.55 39.51-10.5 57.96-18.16 17.17-7.12 33.77-14.01 50.73-16.47-.31-1.1-.61-2.21-.91-3.33-1.3-4.89-2.5-10.1-3.72-15.87-41.03 16.12-80.93 26.7-103 21.91-1.71 13.98-1.13 24.99-1.06 31.92z"/><path fill="#EFD6C6" d="M105.24 64.62c-8.32 2.44-15.32 5.93-20.84 10.62-5.89 5.02-10.15 11.49-12.57 19.62a4.963 4.963 0 01-4.38 3.54l-29.63 3.99c.56 1.82.85 3.69.85 5.61 0 10.11-8.07 19.1-20.61 24.83 2.98 7.54 6.65 15.11 9.49 19.03 4.09 5.63 9.18 9.9 15.89 12.49 9.7 3.74 26.9 3.31 40.92 2.96 4.18-.1 8.11-.2 10.6-.2a4.983 4.983 0 014.6 6.89c-9.3 28.79-13.49 56.2-9.55 80.81 3.89 24.33 15.84 46.08 38.86 63.89 6.34 4.92 13.64 9.29 21.3 13.2 7.55 3.85 15.32 7.2 22.82 10.14l-16.24-58.17c-1.5-5.16-3.2-10.24-4.76-15.32-18.8-61.42 52.62-75.95 18.19-123.88-19.74-27.5-125.02 6.93-70.31-72.82 1.7-2.47 3.49-4.89 5.37-7.23z"/><path fill="#D3A480" d="M148.4 342.62c-15.43-8.27-28.62-17.69-39.34-28.8-4.95-5.13-9.37-10.62-13.22-16.51l11.57 119.07a4.968 4.968 0 01-5.51 5.4l-.84-.06c-6.17-.37-11.83 1.17-16.01 4.05-3.87 2.66-6.46 6.49-6.9 10.98l-.05.73c-.46 8.7 2.86 8.85 9.22 9.14l1.07.05c7.63.35 16.03.7 23.42-.33 6.66-.93 12.52-3 16.04-7.3 1.63-2 2.97-4.3 4.04-6.85 1.12-2.65 1.98-5.64 2.61-8.92 4.52-26.9 9.25-53.77 13.9-80.65z"/><path fill="#1E1510" fill-rule="nonzero" d="M148.4 342.62c-15.43-8.27-28.62-17.69-39.34-28.8-4.95-5.13-9.37-10.62-13.22-16.51l11.57 119.07a4.968 4.968 0 01-5.51 5.4l-.84-.06c-6.17-.37-11.83 1.17-16.01 4.05-3.87 2.66-6.46 6.49-6.9 10.98l-.05.73c-.46 8.7 2.86 8.85 9.22 9.14l1.07.05c7.63.35 16.03.7 23.42-.33 6.66-.93 12.52-3 16.04-7.3 1.63-2 2.97-4.3 4.04-6.85 1.12-2.65 1.98-5.64 2.61-8.92 4.52-26.9 9.25-53.77 13.9-80.65zm-32.18-35.69c10.6 10.99 23.95 20.27 39.75 28.44 2.01.91 3.24 3.09 2.85 5.37l-12.58 72.7-1.96 11.68c-.76 3.9-1.82 7.56-3.24 10.93-1.46 3.48-3.27 6.59-5.48 9.29-5.38 6.57-13.44 9.6-22.39 10.85-8.23 1.15-17.14.78-25.21.4l-1.07-.05c-13-.58-19.77-.88-18.71-19.6l.06-.93.02-.08c.69-7.65 4.88-14.03 11.14-18.34 4.85-3.34 10.96-5.41 17.59-5.8L83.27 270.64a4.975 4.975 0 013.37-5.49c2.61-.85 5.42.58 6.27 3.19 4.91 15 12.78 27.67 23.31 38.59z"/><path fill="#D3A480" d="M345.04 313.79c-14.3 2.05-25.94 6.55-39.45 11.78l-2.92 1.13c4.28 10.33 9.62 18.75 15.73 25.78 6.99 8.04 15.02 14.3 23.65 19.53l2.72 1.63c13.26 7.93 17.09 10.22 14.25 29.51l-1.56 10.58c-.65 4.56-.91 6.33-3.37 7.91-1.99 1.28-3.22 1.05-5.24.68-.83-.15-2.12-.39-4.22-.21-1.42.13-2.83.42-4.19.87-3.74 1.23-7.11 3.63-9.44 7-2.33 3.38-3.61 7.82-3.15 13.15.1 1.12.27 2.27.53 3.46h23.05c9.95 0 16.26-.65 20.67-3.45 4.41-2.79 7.67-8.17 11.59-17.68 3.59-8.71 6.16-18.97 7.72-28.88 1.58-10.01 2.14-19.6 1.7-26.89-12.37-7.23-22.47-15.41-30.51-24.88-7.71-9.07-13.49-19.31-17.56-31.02z"/><path fill="#1E1510" fill-rule="nonzero" d="M345.04 313.79c-14.3 2.05-25.94 6.55-39.45 11.78l-2.92 1.13c4.28 10.33 9.62 18.75 15.73 25.78 6.99 8.04 15.02 14.3 23.65 19.53l2.72 1.63c13.26 7.93 17.09 10.22 14.25 29.51l-1.56 10.58c-.65 4.56-.91 6.33-3.37 7.91-1.99 1.28-3.22 1.05-5.24.68-.83-.15-2.12-.39-4.22-.21-1.42.13-2.83.42-4.19.87-3.74 1.23-7.11 3.63-9.44 7-2.33 3.38-3.61 7.82-3.15 13.15.1 1.12.27 2.27.53 3.46h23.05c9.95 0 16.26-.65 20.67-3.45 4.41-2.79 7.67-8.17 11.59-17.68 3.59-8.71 6.16-18.97 7.72-28.88 1.58-10.01 2.14-19.6 1.7-26.89-12.37-7.23-22.47-15.41-30.51-24.88-7.71-9.07-13.49-19.31-17.56-31.02zm-43.03 2.52c15.42-5.97 28.51-11.04 45.95-12.9a4.98 4.98 0 015.28 3.5c3.68 12.04 9.25 22.41 16.95 31.48 7.74 9.11 17.69 16.97 30.1 23.95 1.36.77 2.34 2.17 2.51 3.85.83 8.26.32 19.87-1.58 31.9-1.68 10.65-4.45 21.7-8.35 31.15-4.75 11.51-9.03 18.25-15.44 22.31-6.4 4.06-14.18 5.01-26 5.01h-26.85c-2.09 0-4.04-1.33-4.73-3.43-1.05-3.19-1.67-6.25-1.92-9.14-.68-7.79 1.31-14.45 4.9-19.66 3.6-5.23 8.79-8.93 14.49-10.81 2.1-.69 4.27-1.14 6.45-1.33 1.53-.13 2.8-.12 3.87-.05l1.53-10.43c1.87-12.74-.67-14.26-9.5-19.54l-2.76-1.67c-9.47-5.74-18.3-12.63-26.02-21.52-7.7-8.86-14.28-19.67-19.27-33.25l-.05-.12c-.96-2.57.34-5.44 2.9-6.41 3.21-1.22 5.4-2.07 7.54-2.89zM10.8 132.17c-.74-1.56-.66-3.29.06-4.72-2.91-8.15-3.83-14.21-3.1-18.55.82-4.89 3.74-7.58 8.27-8.59l19.69-2.65c1.91 3.24 2.95 6.72 2.95 10.34 0 8.97-6.36 17.06-16.55 22.77.17.27.34.53.51.8 4.78 7.42 11.85 11.88 20.24 13.3 8.82 1.48 19.14-.3 29.91-5.45 2.99-1.43 6.06-3.15 9.19-5.17a5.325 5.325 0 017.36 1.61c1.59 2.47.87 5.77-1.61 7.36a95.2 95.2 0 01-10.35 5.79c-12.81 6.13-25.33 8.21-36.25 6.37-11.37-1.92-20.97-7.98-27.46-18.06a45.304 45.304 0 01-2.86-5.15zM151.26 286.37c-.68-2.66.93-5.37 3.6-6.05 2.67-.68 5.38.94 6.05 3.6l17.27 67.65c.68 2.66-.93 5.37-3.6 6.05-2.66.68-5.38-.94-6.05-3.6l-17.27-67.65z"/><path fill="#D3A480" d="M413.81 213.23c4.9 3.67 9.3 7.73 13.12 12.27 7.91-3.72 14.68-8.13 20.32-13.05 10.47-9.15 17.07-20.08 19.81-31.6 2.72-11.45 1.62-23.53-3.28-35-1.16-2.71-2.53-5.4-4.11-8.03-2.17 17.24-7.54 32.6-17.11 44.94-8.68 11.2-20.7 19.84-36.79 25.05 2.8 1.7 5.48 3.5 8.04 5.42z"/><path fill="#1E1510" fill-rule="nonzero" d="M421.44 234.59c-3.8-5.08-8.38-9.51-13.58-13.41-5.29-3.97-11.29-7.44-17.81-10.54a4.972 4.972 0 01-2.38-6.62 4.99 4.99 0 013.56-2.76c20.05-3.84 34.12-12.5 43.47-24.57 10.63-13.71 15.41-32 16.1-52.75.08-2.75 2.38-4.9 5.12-4.81 1.43.04 2.7.69 3.58 1.69 5.81 6.66 10.29 13.79 13.43 21.14 5.75 13.46 7.03 27.67 3.82 41.19-3.2 13.47-10.85 26.2-22.96 36.77-7.23 6.31-16.03 11.84-26.41 16.27-2.15.91-4.59.19-5.94-1.6zm-7.63-21.36c4.9 3.67 9.3 7.73 13.12 12.27 7.91-3.72 14.68-8.13 20.32-13.05 10.47-9.15 17.07-20.08 19.81-31.6 2.72-11.45 1.62-23.53-3.28-35-1.16-2.71-2.53-5.4-4.11-8.03-2.17 17.24-7.54 32.6-17.11 44.94-8.68 11.2-20.7 19.84-36.79 25.05 2.8 1.7 5.48 3.5 8.04 5.42zM181.52 113.74a4.983 4.983 0 01-6.89 1.44 4.974 4.974 0 01-1.44-6.89c10.22-15.64 12.83-33.21 9.04-50.23-3.58-16.08-12.83-31.73-26.73-44.9-2.88 6.98-5.09 14.59-6.6 22.73-1.95 10.5-2.73 21.91-2.26 34.06a4.95 4.95 0 01-4.79 5.13c-2.74.1-5.04-2.04-5.13-4.78-.5-12.87.33-25 2.41-36.2 2.12-11.48 5.55-21.99 10.17-31.34.18-.34.4-.68.66-.99a4.95 4.95 0 016.98-.61c18.35 15.44 30.53 34.74 34.99 54.76 4.35 19.59 1.36 39.82-10.41 57.82z"/><path fill-rule="nonzero" d="M115.05 166.5a4.962 4.962 0 11.31 9.92l-21.88.72a4.962 4.962 0 01-5.12-4.8c-.08-2.74 2.07-5.04 4.81-5.12l21.88-.72zm-5.67-71.04c.68 1.53.8 3.29.4 5.04-.52 2.32-1.95 4.64-4.15 6.4-2.2 1.75-4.78 2.63-7.16 2.62-2.41 0-4.63-.91-6.08-2.71l-.01-.03c-1.45-1.81-1.85-4.18-1.32-6.54.16-.7.4-1.41.72-2.09l-1.12.26c-2.66.64-5.35-1-5.99-3.66-.64-2.67.99-5.35 3.66-6 5.26-1.26 9.96-2.09 14.64-2.65 4.58-.55 9.32-.87 14.7-1.13a4.973 4.973 0 015.2 4.73c.12 2.74-1.99 5.07-4.73 5.2-3.07.15-5.95.32-8.76.56z"/><path fill="#E8BC9B" d="M173.65 110.5L145.7 70.74c-1.15-24.99.5-37.69 9.56-58.92 26.33 24.4 41.36 61.5 18.39 98.68z"/><path fill="#1E1510" fill-rule="nonzero" d="M336.16 278.32c-.54-2.68 1.21-5.3 3.89-5.84a4.96 4.96 0 015.84 3.9c1.65 8.17 3.19 15.24 4.97 21.93 1.74 6.49 3.68 12.51 6.17 18.69a4.983 4.983 0 01-2.76 6.47 4.98 4.98 0 01-6.47-2.77c-2.65-6.59-4.72-12.98-6.55-19.86-1.79-6.69-3.37-13.99-5.09-22.52z"/><path fill-rule="nonzero" d="M231.62 282.81a4.972 4.972 0 015.18-4.75c2.74.12 4.86 2.44 4.75 5.18l-2.88 66.04a4.972 4.972 0 01-5.18 4.75 4.972 4.972 0 01-4.75-5.18l2.88-66.04z"/></svg>